<svg xmlns="http://www.w3.org/2000/svg" width="800" height="1000" viewBox="0 0 800 1000">
  <defs>
    <linearGradient id="gradient1" x1="0%" y1="0%" x2="0%" y2="100%">
      <stop offset="0%" style="stop-color:#3b82f6;stop-opacity:0.8" />
      <stop offset="100%" style="stop-color:#1e40af;stop-opacity:0.4" />
    </linearGradient>
    <linearGradient id="gradient2" x1="0%" y1="0%" x2="0%" y2="100%">
      <stop offset="0%" style="stop-color:#10b981;stop-opacity:0.8" />
      <stop offset="100%" style="stop-color:#059669;stop-opacity:0.4" />
    </linearGradient>
    <filter id="shadow">
      <feDropShadow dx="0" dy="2" stdDeviation="3" flood-opacity="0.3"/>
    </filter>
  </defs>
  
  <!-- Background -->
  <rect width="100%" height="100%" fill="#0f172a" />
  
  <!-- Main Title -->
  <text x="400" y="50" text-anchor="middle" fill="#f1f5f9" font-size="28" font-weight="bold">Annual Revenue Analysis</text>
  <text x="400" y="80" text-anchor="middle" fill="#94a3b8" font-size="16">Fiscal Year 2025 - Comprehensive Overview</text>
  
  <!-- Key Metrics Section -->
  <g transform="translate(50,110)">
    <rect x="0" y="0" width="220" height="100" rx="8" fill="#1e293b" filter="url(#shadow)" />
    <text x="110" y="30" text-anchor="middle" fill="#94a3b8" font-size="12">TOTAL REVENUE</text>
    <text x="110" y="60" text-anchor="middle" fill="#10b981" font-size="24" font-weight="bold">$12.4M</text>
    <text x="110" y="85" text-anchor="middle" fill="#10b981" font-size="14">↑ 28.5%</text>
  </g>
  
  <g transform="translate(290,110)">
    <rect x="0" y="0" width="220" height="100" rx="8" fill="#1e293b" filter="url(#shadow)" />
    <text x="110" y="30" text-anchor="middle" fill="#94a3b8" font-size="12">AVG MONTHLY</text>
    <text x="110" y="60" text-anchor="middle" fill="#3b82f6" font-size="24" font-weight="bold">$1.03M</text>
    <text x="110" y="85" text-anchor="middle" fill="#3b82f6" font-size="14">↑ 15.2%</text>
  </g>
  
  <g transform="translate(530,110)">
    <rect x="0" y="0" width="220" height="100" rx="8" fill="#1e293b" filter="url(#shadow)" />
    <text x="110" y="30" text-anchor="middle" fill="#94a3b8" font-size="12">Q4 GROWTH</text>
    <text x="110" y="60" text-anchor="middle" fill="#f59e0b" font-size="24" font-weight="bold">34.7%</text>
    <text x="110" y="85" text-anchor="middle" fill="#10b981" font-size="14">Best Quarter</text>
  </g>
  
  <!-- Monthly Revenue Chart -->
  <g transform="translate(50,240)">
    <text x="0" y="0" fill="#f1f5f9" font-size="20" font-weight="bold">Monthly Revenue Breakdown</text>
    <text x="0" y="25" fill="#94a3b8" font-size="13">January - December 2025</text>
    
    <!-- Chart Grid -->
    <g transform="translate(0,50)">
      <!-- Horizontal grid lines -->
      <line x1="60" y1="0" x2="700" y2="0" stroke="#334155" stroke-width="1" opacity="0.3"/>
      <line x1="60" y1="60" x2="700" y2="60" stroke="#334155" stroke-width="1" opacity="0.3"/>
      <line x1="60" y1="120" x2="700" y2="120" stroke="#334155" stroke-width="1" opacity="0.3"/>
      <line x1="60" y1="180" x2="700" y2="180" stroke="#334155" stroke-width="1" opacity="0.3"/>
      <line x1="60" y1="240" x2="700" y2="240" stroke="#334155" stroke-width="1" stroke-dasharray="2,2"/>
      
      <!-- Y-axis labels -->
      <text x="50" y="5" text-anchor="end" fill="#64748b" font-size="11">$1.5M</text>
      <text x="50" y="65" text-anchor="end" fill="#64748b" font-size="11">$1.2M</text>
      <text x="50" y="125" text-anchor="end" fill="#64748b" font-size="11">$0.9M</text>
      <text x="50" y="185" text-anchor="end" fill="#64748b" font-size="11">$0.6M</text>
      <text x="50" y="245" text-anchor="end" fill="#64748b" font-size="11">$0.3M</text>
      
      <!-- Bars -->
      <rect x="70" y="120" width="42" height="120" rx="4" fill="url(#gradient1)" filter="url(#shadow)"/>
      <rect x="122" y="105" width="42" height="135" rx="4" fill="url(#gradient1)" filter="url(#shadow)"/>
      <rect x="174" y="95" width="42" height="145" rx="4" fill="url(#gradient1)" filter="url(#shadow)"/>
      <rect x="226" y="75" width="42" height="165" rx="4" fill="url(#gradient2)" filter="url(#shadow)"/>
      <rect x="278" y="65" width="42" height="175" rx="4" fill="url(#gradient2)" filter="url(#shadow)"/>
      <rect x="330" y="55" width="42" height="185" rx="4" fill="url(#gradient2)" filter="url(#shadow)"/>
      <rect x="382" y="80" width="42" height="160" rx="4" fill="url(#gradient2)" filter="url(#shadow)"/>
      <rect x="434" y="70" width="42" height="170" rx="4" fill="url(#gradient2)" filter="url(#shadow)"/>
      <rect x="486" y="50" width="42" height="190" rx="4" fill="url(#gradient2)" filter="url(#shadow)"/>
      <rect x="538" y="35" width="42" height="205" rx="4" fill="url(#gradient2)" filter="url(#shadow)"/>
      <rect x="590" y="25" width="42" height="215" rx="4" fill="url(#gradient2)" filter="url(#shadow)"/>
      <rect x="642" y="15" width="42" height="225" rx="4" fill="url(#gradient2)" filter="url(#shadow)"/>
      
      <!-- Value labels on bars -->
      <text x="91" y="115" text-anchor="middle" fill="#f1f5f9" font-size="10" font-weight="bold">0.84</text>
      <text x="143" y="100" text-anchor="middle" fill="#f1f5f9" font-size="10" font-weight="bold">0.89</text>
      <text x="195" y="90" text-anchor="middle" fill="#f1f5f9" font-size="10" font-weight="bold">0.93</text>
      <text x="247" y="70" text-anchor="middle" fill="#f1f5f9" font-size="10" font-weight="bold">1.01</text>
      <text x="299" y="60" text-anchor="middle" fill="#f1f5f9" font-size="10" font-weight="bold">1.05</text>
      <text x="351" y="50" text-anchor="middle" fill="#f1f5f9" font-size="10" font-weight="bold">1.11</text>
      <text x="403" y="75" text-anchor="middle" fill="#f1f5f9" font-size="10" font-weight="bold">1.02</text>
      <text x="455" y="65" text-anchor="middle" fill="#f1f5f9" font-size="10" font-weight="bold">1.08</text>
      <text x="507" y="45" text-anchor="middle" fill="#f1f5f9" font-size="10" font-weight="bold">1.15</text>
      <text x="559" y="30" text-anchor="middle" fill="#f1f5f9" font-size="10" font-weight="bold">1.23</text>
      <text x="611" y="20" text-anchor="middle" fill="#f1f5f9" font-size="10" font-weight="bold">1.28</text>
      <text x="663" y="10" text-anchor="middle" fill="#f1f5f9" font-size="10" font-weight="bold">1.35</text>
      
      <!-- X-axis labels -->
      <text x="91" y="260" text-anchor="middle" fill="#64748b" font-size="11">Jan</text>
      <text x="143" y="260" text-anchor="middle" fill="#64748b" font-size="11">Feb</text>
      <text x="195" y="260" text-anchor="middle" fill="#64748b" font-size="11">Mar</text>
      <text x="247" y="260" text-anchor="middle" fill="#64748b" font-size="11">Apr</text>
      <text x="299" y="260" text-anchor="middle" fill="#64748b" font-size="11">May</text>
      <text x="351" y="260" text-anchor="middle" fill="#64748b" font-size="11">Jun</text>
      <text x="403" y="260" text-anchor="middle" fill="#64748b" font-size="11">Jul</text>
      <text x="455" y="260" text-anchor="middle" fill="#64748b" font-size="11">Aug</text>
      <text x="507" y="260" text-anchor="middle" fill="#64748b" font-size="11">Sep</text>
      <text x="559" y="260" text-anchor="middle" fill="#64748b" font-size="11">Oct</text>
      <text x="611" y="260" text-anchor="middle" fill="#64748b" font-size="11">Nov</text>
      <text x="663" y="260" text-anchor="middle" fill="#64748b" font-size="11">Dec</text>
    </g>
  </g>
  
  <!-- Quarterly Comparison -->
  <g transform="translate(50,580)">
    <text x="0" y="0" fill="#f1f5f9" font-size="20" font-weight="bold">Quarterly Performance</text>
    <text x="0" y="25" fill="#94a3b8" font-size="13">Year-over-year comparison</text>
    
    <g transform="translate(0,50)">
      <!-- Q1 -->
      <rect x="0" y="0" width="165" height="120" rx="8" fill="#1e293b" filter="url(#shadow)" />
      <text x="82.5" y="25" text-anchor="middle" fill="#94a3b8" font-size="14" font-weight="bold">Q1 2025</text>
      <text x="82.5" y="55" text-anchor="middle" fill="#3b82f6" font-size="22" font-weight="bold">$2.66M</text>
      <text x="82.5" y="80" text-anchor="middle" fill="#64748b" font-size="11">2024: $2.31M</text>
      <text x="82.5" y="100" text-anchor="middle" fill="#10b981" font-size="13">+15.2% YoY</text>
      
      <!-- Q2 -->
      <rect x="185" y="0" width="165" height="120" rx="8" fill="#1e293b" filter="url(#shadow)" />
      <text x="267.5" y="25" text-anchor="middle" fill="#94a3b8" font-size="14" font-weight="bold">Q2 2025</text>
      <text x="267.5" y="55" text-anchor="middle" fill="#3b82f6" font-size="22" font-weight="bold">$3.17M</text>
      <text x="267.5" y="80" text-anchor="middle" fill="#64748b" font-size="11">2024: $2.58M</text>
      <text x="267.5" y="100" text-anchor="middle" fill="#10b981" font-size="13">+22.9% YoY</text>
      
      <!-- Q3 -->
      <rect x="370" y="0" width="165" height="120" rx="8" fill="#1e293b" filter="url(#shadow)" />
      <text x="452.5" y="25" text-anchor="middle" fill="#94a3b8" font-size="14" font-weight="bold">Q3 2025</text>
      <text x="452.5" y="55" text-anchor="middle" fill="#3b82f6" font-size="22" font-weight="bold">$3.25M</text>
      <text x="452.5" y="80" text-anchor="middle" fill="#64748b" font-size="11">2024: $2.71M</text>
      <text x="452.5" y="100" text-anchor="middle" fill="#10b981" font-size="13">+19.9% YoY</text>
      
      <!-- Q4 -->
      <rect x="555" y="0" width="165" height="120" rx="8" fill="#1e293b" filter="url(#shadow)" />
      <text x="637.5" y="25" text-anchor="middle" fill="#94a3b8" font-size="14" font-weight="bold">Q4 2025</text>
      <text x="637.5" y="55" text-anchor="middle" fill="#10b981" font-size="22" font-weight="bold">$3.86M</text>
      <text x="637.5" y="80" text-anchor="middle" fill="#64748b" font-size="11">2024: $2.87M</text>
      <text x="637.5" y="100" text-anchor="middle" fill="#10b981" font-size="13">+34.5% YoY</text>
    </g>
  </g>
  
  <!-- Revenue by Source -->
  <g transform="translate(50,780)">
    <text x="0" y="0" fill="#f1f5f9" font-size="20" font-weight="bold">Revenue Distribution by Source</text>
    
    <g transform="translate(0,30)">
      <!-- Product Sales -->
      <rect x="0" y="10" width="340" height="35" rx="4" fill="#3b82f6" opacity="0.9"/>
      <text x="15" y="33" fill="#f1f5f9" font-size="14" font-weight="bold">Product Sales</text>
      <text x="325" y="33" text-anchor="end" fill="#f1f5f9" font-size="14" font-weight="bold">$5.58M (45%)</text>
      
      <!-- Services -->
      <rect x="0" y="55" width="285" height="35" rx="4" fill="#10b981" opacity="0.9"/>
      <text x="15" y="78" fill="#f1f5f9" font-size="14" font-weight="bold">Services</text>
      <text x="270" y="78" text-anchor="end" fill="#f1f5f9" font-size="14" font-weight="bold">$4.34M (35%)</text>
      
      <!-- Subscriptions -->
      <rect x="0" y="100" width="170" height="35" rx="4" fill="#f59e0b" opacity="0.9"/>
      <text x="15" y="123" fill="#f1f5f9" font-size="14" font-weight="bold">Subscriptions</text>
      <text x="155" y="123" text-anchor="end" fill="#f1f5f9" font-size="14" font-weight="bold">$1.98M (16%)</text>
      
      <!-- Other -->
      <rect x="0" y="145" width="85" height="35" rx="4" fill="#8b5cf6" opacity="0.9"/>
      <text x="15" y="168" fill="#f1f5f9" font-size="14" font-weight="bold">Other</text>
      <text x="70" y="168" text-anchor="end" fill="#f1f5f9" font-size="14" font-weight="bold">$0.50M (4%)</text>
      
      <!-- Legend items -->
      <g transform="translate(380,20)">
        <circle cx="0" cy="0" r="5" fill="#3b82f6"/>
        <text x="12" y="4" fill="#94a3b8" font-size="12">Product Sales</text>
        
        <circle cx="0" cy="30" r="5" fill="#10b981"/>
        <text x="12" y="34" fill="#94a3b8" font-size="12">Services</text>
        
        <circle cx="0" cy="60" r="5" fill="#f59e0b"/>
        <text x="12" y="64" fill="#94a3b8" font-size="12">Subscriptions</text>
        
        <circle cx="0" cy="90" r="5" fill="#8b5cf6"/>
        <text x="12" y="94" fill="#94a3b8" font-size="12">Other Revenue</text>
      </g>
    </g>
  </g>
  
  <!-- Footer -->
  <text x="400" y="980" text-anchor="middle" fill="#475569" font-size="11">Generated: January 2026 | Data: FY2025 Audited Financial Reports</text>
</svg>
